# xmcd
#
# Track frame offsets:
#	151
#	20400
#	39339
#	56020
#	72741
#	91922
#	107563
#	134838
#	152811
#	177296
#	191235
#	210574
#	221389
#	246594
#	259651
#	276936
#
# Disc length: 3975
#
# Revision: 2
# Processed by: cddbd v1.5.1PL0 Copyright (c) Steve Scherf et al.
# Submitted via: dBpowerAMP V4.0
# Normalized: r0:TDELIM( - );r1:DSETVAR1
#
DISCID=f60f8510
DTITLE=Various Artist - total dance
DYEAR=1900
DGENRE=
TTITLE0=Vanilla ice - ice ice baby
TTITLE1=Enigma - sadeness part 1
TTITLE2=Destiny's child - independant woman part 1
TTITLE3=Vengaboys - We like to party
TTITLE4=MC Hammer - u can't touch this
TTITLE5=Wamdue project - king of my castle
TTITLE6=Gloria Esrfan - Y-TO-Conga
TTITLE7=Roxette - joyride
TTITLE8=Jon secada - just another day
TTITLE9=Shaggy - oh carolina
TTITLE10=Santana - oye como va
TTITLE11=Yazoo - situation
TTITLE12=Deep foret - deep forest
TTITLE13=Spice girls - spice up your life
TTITLE14=Will smith - getting jiggy with it
TTITLE15=Ricky Martin - She bangs
EXTD=total dance
EXTT0=
EXTT1=
EXTT2=
EXTT3=
EXTT4=
EXTT5=
EXTT6=
EXTT7=
EXTT8=
EXTT9=
EXTT10=
EXTT11=
EXTT12=
EXTT13=
EXTT14=
EXTT15=
PLAYORDER=
